<?xml version="1.0" encoding="UTF-8"?>
<svg width="72px" height="72px" viewBox="0 0 72 72" version="1.1" xmlns="http://www.w3.org/2000/svg" xmlns:xlink="http://www.w3.org/1999/xlink">
    <!-- Generator: Sketch 47.1 (45422) - http://www.bohemiancoding.com/sketch -->
    <title>下载</title>
    <desc>Created with Sketch.</desc>
    <defs></defs>
    <g id="Page-1" stroke="none" stroke-width="1" fill="none" fill-rule="evenodd">
        <g id="下载中心3" transform="translate(-834.000000, -532.000000)">
            <g id="Group-5-Copy-2" transform="translate(0.000000, 400.000000)">
                <g id="4" transform="translate(732.000000, 88.000000)">
                    <g id="下载" transform="translate(102.000000, 44.000000)">
                        <rect id="搜索聊天记录" fill-opacity="0.1" fill="#000000" opacity="0" x="0" y="0" width="72" height="72"></rect>
                        <path d="M63,51.75 L63,56.25 C63,59.9779221 59.9779221,63 56.25,63 L15.75,63 C12.0220779,63 9,59.9779221 9,56.25 L9,51.75 C9,50.5073593 10.0073593,49.5 11.25,49.5 C12.4926407,49.5 13.5,50.5073593 13.5,51.75 L13.5,56.25 C13.5,57.4926407 14.5073593,58.5 15.75,58.5 L56.25,58.5 C57.4926407,58.5 58.5,57.4926407 58.5,56.25 L58.5,51.75 C58.5,50.5073593 59.5073593,49.5 60.75,49.5 C61.9926407,49.5 63,50.5073593 63,51.75 Z M38.2429224,41.8180195 L47.1298542,32.9310877 C48.0085339,32.052408 49.4331551,32.052408 50.3118347,32.9310877 C51.1905144,33.8097673 51.1905144,35.2343885 50.3118347,36.1130682 L37.5839127,48.8409903 C37.1445728,49.2803301 36.5687476,49.5 35.9929224,49.5 C35.4170972,49.5 34.841272,49.2803301 34.4019321,48.8409903 L21.6740101,36.1130682 C20.7953304,35.2343885 20.7953304,33.8097673 21.6740101,32.9310877 C22.5526897,32.052408 23.9773109,32.052408 24.8559906,32.9310877 L33.7429224,41.8180195 L33.7429224,11.25 C33.7429224,10.0073593 34.7502817,9 35.9929224,9 C37.2355631,9 38.2429224,10.0073593 38.2429224,11.25 L38.2429224,41.8180195 Z" id="Combined-Shape" fill="#FFFFFF" fill-rule="nonzero"></path>
                    </g>
                </g>
            </g>
        </g>
    </g>
</svg>