<?xml version="1.0" encoding="UTF-8"?>
<svg width="88px" height="88px" viewBox="0 0 88 88" version="1.1" xmlns="http://www.w3.org/2000/svg" xmlns:xlink="http://www.w3.org/1999/xlink">
    <!-- Generator: Sketch 47 (45396) - http://www.bohemiancoding.com/sketch -->
    <title>Windows</title>
    <desc>Created with Sketch.</desc>
    <defs></defs>
    <g id="Page-1" stroke="none" stroke-width="1" fill="none" fill-rule="evenodd">
        <g id="下载中心3" transform="translate(-1127.000000, -524.000000)">
            <g id="Group-5-Copy-2" transform="translate(0.000000, 400.000000)">
                <g id="4" transform="translate(1032.000000, 88.000000)">
                    <g id="Windows" transform="translate(95.000000, 36.000000)">
                        <path d="M88,44 C88,68.299 68.299,88 44,88 C19.701,88 -7.10542736e-15,68.299 -7.10542736e-15,44 C-7.10542736e-15,19.6955 19.701,0 44,0 C68.299,0 88,19.6955 88,44" id="Shape" fill-opacity="0.1" fill="#000000" opacity="0"></path>
                        <path d="M36.65,67.324 L14.2675,64.2545 L14.2675,45.8655 L36.65,45.8655 L36.65,67.324 L36.65,67.324 Z M70.25,45.8655 L70.243,72 L40.3845,67.8 L40.3845,45.8655 L70.25,45.8655 L70.25,45.8655 Z M40.3845,20.3435 L70.243,16 L70.243,42.1345 L40.3845,42.1345 L40.3845,20.3435 L40.3845,20.3435 Z M14.271,42.1345 L14.25,23.931 L36.65,20.886 L36.65,42.1345 L14.271,42.1345 L14.271,42.1345 Z" id="Shape" fill="#01AEF3"></path>
                    </g>
                </g>
            </g>
        </g>
    </g>
</svg>