<?xml version="1.0" encoding="utf-8"?>
<!-- Generator: Adobe Illustrator 17.0.0, SVG Export Plug-In . SVG Version: 6.00 Build 0)  -->
<!DOCTYPE svg PUBLIC "-//W3C//DTD SVG 1.1//EN" "http://www.w3.org/Graphics/SVG/1.1/DTD/svg11.dtd">
<svg version="1.1" id="图层_1" xmlns="http://www.w3.org/2000/svg" xmlns:xlink="http://www.w3.org/1999/xlink" x="0px" y="0px"
	 width="24px" height="24px" viewBox="0 0 24 24" enable-background="new 0 0 24 24" xml:space="preserve">
<title>意见反馈</title>
<desc>Created with Sketch.</desc>
<path fill="#FFFFFF" d="M20.25,3.75H3.75C2.507,3.75,1.5,4.757,1.5,6v12c0,1.243,1.007,2.25,2.25,2.25h16.5
	c1.243,0,2.25-1.007,2.25-2.25V6C22.5,4.757,21.493,3.75,20.25,3.75z M19.84,6l-7.968,6.68L3.903,6H19.84z M20.25,18H3.75V8.797
	l7.254,6.081c0.02,0.023,0.04,0.046,0.062,0.067c0.121,0.121,0.262,0.209,0.412,0.264c0.404,0.162,0.888,0.081,1.217-0.248
	c0.05-0.05,0.094-0.103,0.132-0.158l7.422-6.222V18z"/>
</svg>
