<?xml version="1.0" encoding="UTF-8"?>
<svg width="88px" height="88px" viewBox="0 0 88 88" version="1.1" xmlns="http://www.w3.org/2000/svg" xmlns:xlink="http://www.w3.org/1999/xlink">
    <!-- Generator: Sketch 47 (45396) - http://www.bohemiancoding.com/sketch -->
    <title>Android</title>
    <desc>Created with Sketch.</desc>
    <defs></defs>
    <g id="Page-1" stroke="none" stroke-width="1" fill="none" fill-rule="evenodd">
        <g id="下载中心4" transform="translate(-526.000000, -524.000000)">
            <g id="Group-5-Copy-2" transform="translate(0.000000, 400.000000)">
                <g id="2" transform="translate(432.000000, 88.000000)">
                    <g id="Android" transform="translate(94.000000, 36.000000)">
                        <path d="M88,44 C88,68.2968 68.2997333,88 44,88 C19.7002667,88 -7.10542736e-15,68.2968 -7.10542736e-15,44 C-7.10542736e-15,19.6973333 19.7002667,0 44,0 C68.2997333,0 88,19.6973333 88,44" id="Shape" fill-opacity="0.1" fill="#000000" opacity="0"></path>
                        <path d="M52.75,27.4838231 C51,27.4838231 49.579,26.0628231 49.579,24.3128231 C49.579,22.5628231 51,21.1383231 52.75,21.1383231 C54.5,21.1383231 55.921,22.5628231 55.921,24.3128231 C55.921,26.0628231 54.5,27.4838231 52.75,27.4838231 L52.75,27.4838231 Z M35.25,27.4838231 C33.5,27.4838231 32.079,26.0628231 32.079,24.3128231 C32.079,22.5628231 33.5,21.1383231 35.25,21.1383231 C37,21.1383231 38.421,22.5628231 38.421,24.3128231 C38.421,26.0628231 37,27.4838231 35.25,27.4838231 L35.25,27.4838231 Z M52.106,15.1183231 L54.8745,9.7983231 C55.0145,9.5323231 54.9095,9.2033231 54.647,9.0598231 C54.374,8.9233231 54.045,9.0283231 53.905,9.2943231 L51.0945,14.6948231 C48.893,13.8478231 46.5025,13.3753231 44,13.3753231 C41.4975,13.3753231 39.107,13.8478231 36.9055,14.6948231 L34.095,9.2943231 C33.955,9.0283231 33.626,8.9233231 33.353,9.0598231 C33.0905,9.2033231 32.9855,9.5323231 33.1255,9.7983231 L35.894,15.1183231 C29.699,17.9218231 25.212,23.8403231 24.435,30.8753231 L63.565,30.8753231 C62.788,23.8403231 58.301,17.9218231 52.106,15.1183231 L52.106,15.1183231 Z M24.3125,59.3128231 C24.3125,62.9353231 27.249,65.8753231 30.875,65.8753231 L33.0625,65.8753231 L33.0625,74.6253231 C33.0625,77.0298231 35.0295,79.0003231 37.4375,79.0003231 C39.8455,79.0003231 41.8125,77.0298231 41.8125,74.6253231 L41.8125,65.8753231 L46.1875,65.8753231 L46.1875,74.6253231 C46.1875,77.0298231 48.1545,79.0003231 50.5625,79.0003231 C52.9705,79.0003231 54.9375,77.0298231 54.9375,74.6253231 L54.9375,65.8753231 L57.125,65.8753231 C60.751,65.8753231 63.6875,62.9353231 63.6875,59.3128231 L63.6875,35.2503231 L24.3125,35.2503231 L24.3125,59.3128231 L24.3125,59.3128231 Z M17.75,30.8753231 C15.342,30.8753231 13.375,32.8423231 13.375,35.2503231 L13.375,52.7503231 C13.375,55.1548231 15.342,57.1253231 17.75,57.1253231 C20.158,57.1253231 22.125,55.1548231 22.125,52.7503231 L22.125,35.2503231 C22.125,32.8423231 20.158,30.8753231 17.75,30.8753231 L17.75,30.8753231 Z M70.25,30.8753231 C67.842,30.8753231 65.875,32.8423231 65.875,35.2503231 L65.875,52.7503231 C65.875,55.1548231 67.842,57.1253231 70.25,57.1253231 C72.658,57.1253231 74.625,55.1548231 74.625,52.7503231 L74.625,35.2503231 C74.625,32.8423231 72.658,30.8753231 70.25,30.8753231 L70.25,30.8753231 Z" id="Shape" fill="#A4C639"></path>
                    </g>
                </g>
            </g>
        </g>
    </g>
</svg>