<?xml version="1.0" encoding="utf-8"?>
<!-- Generator: Adobe Illustrator 17.0.0, SVG Export Plug-In . SVG Version: 6.00 Build 0)  -->
<!DOCTYPE svg PUBLIC "-//W3C//DTD SVG 1.1//EN" "http://www.w3.org/Graphics/SVG/1.1/DTD/svg11.dtd">
<svg version="1.1" id="图层_1" xmlns="http://www.w3.org/2000/svg" xmlns:xlink="http://www.w3.org/1999/xlink" x="0px" y="0px"
	 width="24px" height="24px" viewBox="0 0 24 24" enable-background="new 0 0 24 24" xml:space="preserve">
<title>返回顶部</title>
<desc>Created with Sketch.</desc>
<path fill="#FFFFFF" d="M12.894,6.444C12.689,6.174,12.366,6,12,6c-0.363,0-0.687,0.175-0.892,0.445l-4.679,4.679
	c-0.438,0.438-0.44,1.146,0.002,1.589c0.439,0.439,1.156,0.435,1.589,0.002l2.855-2.855v11.506c0,0.626,0.499,1.134,1.125,1.134
	c0.621,0,1.125-0.512,1.125-1.134V9.857l2.858,2.858c0.433,0.433,1.149,0.437,1.589-0.002c0.442-0.442,0.44-1.151,0.002-1.589
	L12.894,6.444z M20.617,1.5H3.383C2.757,1.5,2.25,1.999,2.25,2.625c0,0.621,0.502,1.125,1.133,1.125h17.235
	c0.626,0,1.133-0.499,1.133-1.125C21.75,2.004,21.248,1.5,20.617,1.5z"/>
</svg>
