<?xml version="1.0" encoding="utf-8"?>
<!-- Generator: Adobe Illustrator 17.0.0, SVG Export Plug-In . SVG Version: 6.00 Build 0)  -->
<!DOCTYPE svg PUBLIC "-//W3C//DTD SVG 1.1//EN" "http://www.w3.org/Graphics/SVG/1.1/DTD/svg11.dtd">
<svg version="1.1" id="图层_1" xmlns="http://www.w3.org/2000/svg" xmlns:xlink="http://www.w3.org/1999/xlink" x="0px" y="0px"
	 width="24px" height="24px" viewBox="0 0 24 24" enable-background="new 0 0 24 24" xml:space="preserve">
<title>联系我们</title>
<desc>Created with Sketch.</desc>
<path fill="#FFFFFF" d="M22.482,16.135c-0.092-0.918-0.536-1.746-1.25-2.329l-2.473-2.023c-1.144-0.938-2.874-1.021-4.105-0.201
	l-1.053,0.703l-1.922-1.924l0.702-1.055c0.851-1.271,0.769-2.92-0.198-4.102l-2.026-2.476c-0.149-0.181-0.313-0.344-0.484-0.482
	c-1.423-1.165-3.7-0.938-4.862,0.485L2.279,5.823c-0.603,0.738-0.875,1.706-0.748,2.65c0.381,2.823,2.109,5.791,5.138,8.821
	c3.027,3.027,5.997,4.756,8.82,5.138c0.155,0.021,0.31,0.032,0.464,0.032c0.795,0,1.572-0.278,2.186-0.781l3.097-2.533
	c0.181-0.149,0.345-0.315,0.482-0.484C22.303,17.953,22.575,17.053,22.482,16.135z M19.931,17.215
	c-0.044,0.055-0.098,0.107-0.157,0.155l-3.093,2.532c-0.244,0.201-0.57,0.293-0.881,0.25c-2.314-0.313-4.837-1.824-7.501-4.486
	c-2.665-2.664-4.173-5.189-4.486-7.501C3.77,7.85,3.862,7.527,4.063,7.28l2.53-3.092c0.22-0.267,0.545-0.422,0.892-0.422
	c0.187,0,0.465,0.045,0.732,0.266C8.272,4.076,8.326,4.13,8.375,4.188L10.4,6.665c0.316,0.387,0.345,0.949,0.066,1.365L9.59,9.347
	c-0.507,0.758-0.407,1.778,0.24,2.421l2.367,2.369c0.631,0.628,1.676,0.734,2.421,0.238l1.316-0.877
	c0.41-0.275,0.986-0.246,1.368,0.066l2.473,2.023c0.238,0.195,0.385,0.471,0.416,0.777C20.221,16.67,20.13,16.971,19.931,17.215z"/>
</svg>
