<?xml version="1.0" encoding="UTF-8"?>
<svg width="88px" height="88px" viewBox="0 0 88 88" version="1.1" xmlns="http://www.w3.org/2000/svg" xmlns:xlink="http://www.w3.org/1999/xlink">
    <!-- Generator: Sketch 47 (45396) - http://www.bohemiancoding.com/sketch -->
    <title>iPhone@1x</title>
    <desc>Created with Sketch.</desc>
    <defs></defs>
    <g id="Page-1" stroke="none" stroke-width="1" fill="none" fill-rule="evenodd">
        <g id="下载中心4" transform="translate(-226.000000, -524.000000)">
            <g id="Group-5-Copy-2" transform="translate(0.000000, 400.000000)">
                <g id="1" transform="translate(132.000000, 88.000000)">
                    <g id="iPhone" transform="translate(94.000000, 36.000000)">
                        <path d="M88,44 C88,68.2968 68.2997333,88 44,88 C19.7002667,88 -7.10542736e-15,68.2968 -7.10542736e-15,44 C-7.10542736e-15,19.6973333 19.7002667,0 44,0 C68.2997333,0 88,19.6973333 88,44" id="Shape" fill-opacity="0.1" fill="#000000" opacity="0"></path>
                        <path d="M50.9131065,19.0625 C53.1111065,16.3955 54.5951065,12.6925 54.1926065,9 C51.0251065,9.1295 47.1821065,11.107 44.9106065,13.774 C42.8736065,16.133 41.0886065,19.9025 41.5681065,23.5215 C45.1031065,23.7945 48.7081065,21.7225 50.9131065,19.0625 M58.8441065,42.4775 C58.7671065,34.4975 65.3506065,30.6685 65.6446065,30.4795 C61.9451065,25.065 56.1806065,24.323 54.1261065,24.239 C49.2226065,23.7385 44.5536065,27.1265 42.0651065,27.1265 C39.5801065,27.1265 35.7371065,24.309 31.6701065,24.386 C26.3221065,24.463 21.3906065,27.4975 18.6326065,32.2855 C13.0851065,41.9245 17.2151065,56.208 22.6296065,64.0235 C25.2756065,67.849 28.4326065,72.1505 32.5731065,72 C36.5631065,71.8355 38.0716065,69.417 42.8946065,69.417 C47.7176065,69.417 49.0721065,72 53.2931065,71.9195 C57.5876065,71.8355 60.3071065,68.0135 62.9356065,64.181 C65.9736065,59.736 67.2231065,55.445 67.3001065,55.2175 C67.2021065,55.1755 58.9281065,52.0045 58.8441065,42.4775" id="Shape" fill="#58595B"></path>
                    </g>
                </g>
            </g>
        </g>
    </g>
</svg>