<?xml version="1.0" encoding="UTF-8"?>
<svg width="88px" height="88px" viewBox="0 0 88 88" version="1.1" xmlns="http://www.w3.org/2000/svg" xmlns:xlink="http://www.w3.org/1999/xlink">
    <!-- Generator: Sketch 47 (45396) - http://www.bohemiancoding.com/sketch -->
    <title>Mac</title>
    <desc>Created with Sketch.</desc>
    <defs></defs>
    <g id="Page-1" stroke="none" stroke-width="1" fill="none" fill-rule="evenodd">
        <g id="下载中心4" transform="translate(-826.000000, -524.000000)">
            <g id="Group-5-Copy-2" transform="translate(0.000000, 400.000000)">
                <g id="3" transform="translate(732.000000, 88.000000)">
                    <g id="Mac" transform="translate(94.000000, 36.000000)">
                        <circle id="Oval-1" fill-opacity="0.1" fill="#000000" opacity="0" cx="44" cy="44" r="44"></circle>
                        <path d="M44,80 C24.117749,80 8,63.882251 8,44 C8,24.117749 24.117749,8 44,8 C63.882251,8 80,24.117749 80,44 C80,63.882251 63.882251,80 44,80 Z M50.1375914,42.3018868 L50.1375914,42.3018868 L38.3108831,42.3018868 L35.1735835,47.7358491 L53.2748909,47.7358491 L50.1375914,42.3018868 Z M57.9808403,42.3018868 L57.9808403,42.3018868 L61.1181399,47.7358491 L67.7735849,47.7358491 L67.7735849,42.3018868 L57.9808403,42.3018868 Z M30.4676341,42.3018868 L30.4676341,42.3018868 L20.2264151,42.3018868 L20.2264151,47.7358491 L27.3303346,47.7358491 L30.4676341,42.3018868 Z M41.479422,25.7227697 L53.7922845,47.0492732 C53.9308899,47.2893447 54.2454605,47.3672159 54.477541,47.2332242 L58.3149118,45.0177171 C58.5547632,44.8792389 58.6405861,44.5788533 58.4982338,44.332292 L46.1853713,23.0057886 C45.6214467,22.0290424 44.3766253,21.6919948 43.3985847,22.2566668 L42.2240568,22.9347808 C41.2488817,23.4977984 40.9142247,24.7438194 41.479422,25.7227697 Z M57.2859086,52.4838466 C57.4393775,52.715043 57.7623942,52.7877998 58.0044553,52.6480458 L61.2408277,50.7795253 C61.4842012,50.6390135 61.5835146,50.3279319 61.4579004,50.0751459 L59.482229,46.0993059 C59.3587415,45.8507997 59.0564263,45.7660909 58.8243458,45.9000826 L54.986975,48.1155897 C54.7471236,48.2540679 54.6744539,48.5497669 54.8305658,48.7849449 L57.2859086,52.4838466 Z M58.9555881,53.2753963 C58.2384747,53.689422 58.0182858,54.6876799 58.4254411,55.7051795 C58.8325965,56.7226791 59.2378415,57.3077582 60.0961503,58.0660612 C60.9544591,58.8243643 61.8929613,58.9795265 62.8985431,59.6019939 C63.9041248,60.2244613 64.3113015,62.4422682 64.3113015,62.4422682 C64.3956341,62.8041394 64.6226856,62.8353253 64.7995435,62.5105225 C64.7995435,62.5105225 66.0767108,60.6703057 65.8294211,57.9098507 C65.5821315,55.1493956 64.1933769,52.6970113 63.4775113,52.0854857 C62.7616457,51.4739601 62.1041852,51.457553 61.3085628,51.9169057 L58.9555881,53.2753963 Z M38.3781907,29.7711935 L36.6806431,32.7114322 L41.3865925,35.4284133 L43.08414,32.4881747 C43.6471576,31.5129996 43.3159035,30.2677024 42.3378629,29.7030304 L41.1633349,29.0249164 C40.1881598,28.4618988 38.9428627,28.7931529 38.3781907,29.7711935 Z M25.2796991,52.4950587 C25.1417387,52.7340131 25.2321085,53.0444692 25.464189,53.1784609 L29.3015598,55.393968 C29.5414111,55.5324463 29.8467741,55.4525773 29.9856484,55.2120399 L40.9433962,36.2326639 L36.2374469,33.5156828 L25.2796991,52.4950587 Z M22.3622325,62.4312801 C22.2277461,62.9684937 22.4425956,63.0906346 22.8393616,62.7067507 L29.2264151,56.5270706 L24.5204657,53.8100894 L22.3622325,62.4312801 Z" id="Combined-Shape" fill="#899099"></path>
                    </g>
                </g>
            </g>
        </g>
    </g>
</svg>